<?xml version="1.0" standalone="no"?>
<!DOCTYPE svg PUBLIC "-//W3C//DTD SVG 1.1//EN" "http://www.w3.org/Graphics/SVG/1.1/DTD/svg11.dtd" >
<svg xmlns="http://www.w3.org/2000/svg">
<metadata>
Created by FontPrep 20130207 at Sat Jul 30 08:35:06 2016
 By Luis
Copyright (c) 1989 Adobe Systems Incorporated.  All Rights Reserved.Avenir is a registered trademark of Linotype AG and/or its subsidiaries.
</metadata>
<defs>
<font id="f76e53a266266f1da2c50125ac858283" horiz-adv-x='1024' >
  <font-face 
    font-family="AvenirLT-Medium"
    font-weight="400"
    font-stretch="normal"
    units-per-em="2048"
    panose-1="2 0 6 3 2 0 0 2 0 3"
    ascent="1638"
    descent="-410"
    x-height="971"
    cap-height="1450"
    bbox="-340 -578 2122 1892"
    underline-thickness="102"
    underline-position="-153"
    unicode-range="U+0020-FB02"
  />
<missing-glyph horiz-adv-x="569" 
 />
    <glyph glyph-name=".notdef" horiz-adv-x="569" 
 />
    <glyph glyph-name=".null" horiz-adv-x="0" 
 />
    <glyph glyph-name="nonmarkingreturn" horiz-adv-x="681" 
 />
    <glyph glyph-name="space" unicode=" " horiz-adv-x="569" 
 />
    <glyph glyph-name="space" unicode="&#xa0;" horiz-adv-x="569" 
 />
    <glyph glyph-name="exclam" unicode="!" horiz-adv-x="569" 
d="M379 418h-197v1032h197v-1032zM150 123q0 55 39.5 95t95 40t95.5 -40t40 -95t-40 -95t-95.5 -40t-95 40t-39.5 95z" />
    <glyph glyph-name="quotedbl" unicode="&#x22;" horiz-adv-x="1062" 
d="M299 1450h160v-504h-160v504zM604 1450h160v-504h-160v504z" />
    <glyph glyph-name="numbersign" unicode="#" 
d="M51 418v160h217l41 294h-194v160h217l57 418h162l-57 -418h237l57 418h162l-57 -418h194v-160h-217l-41 -294h195v-160h-217l-57 -418h-162l57 418h-237l-58 -418h-162l58 418h-195zM471 872l-41 -294h238l41 294h-238z" />
    <glyph glyph-name="dollar" unicode="$" 
d="M86 1071q0 165 122 277t296 127v147h110v-147q256 0 406 -158l-148 -143q-98 123 -258 129v-484l-4 -2q88 -25 267.5 -90.5t179.5 -329.5q0 -180 -126 -293.5t-317 -128.5v-147h-110v147q-299 0 -451 197l158 141q47 -78 127 -119.5t166 -46.5v504q-418 100 -418 420z
M283 1071q0 -161 221 -223v455q-98 -16 -159.5 -75t-61.5 -157zM860 410q0 74 -62.5 123.5t-183.5 89.5v-476q167 20 206.5 104.5t39.5 158.5z" />
    <glyph glyph-name="percent" unicode="%" horiz-adv-x="1744" 
d="M481 -63l-123 63l912 1516l123 -64zM76 1124.5q0 75.5 28.5 141t77.5 115t114.5 78t141.5 28.5t141.5 -28.5t114.5 -78t78 -115t29 -141t-29 -141t-78 -115t-114.5 -78t-141.5 -28.5t-141.5 28.5t-114.5 78t-77.5 115t-28.5 141zM236 1124q0 -86 58 -144t144 -58
t144.5 58t58.5 144t-58.5 144.5t-144.5 58.5t-144 -58.5t-58 -144.5zM944 325.5q0 75.5 28.5 141t78 115t115 78t141 28.5t141 -28.5t115 -78t78 -115t28.5 -141t-28.5 -141t-78 -115t-115 -78t-141 -28.5t-141 28.5t-115 78t-78 115t-28.5 141zM1104 326q0 -86 58.5 -144.5
t144.5 -58.5t144 58.5t58 144.5t-58 144t-144 58t-144.5 -58t-58.5 -144z" />
    <glyph glyph-name="ampersand" unicode="&#x26;" horiz-adv-x="1478" 
d="M96 383q0 261 330 416q-70 74 -120 151.5t-50 171.5q0 169 112.5 261t274.5 92t268.5 -85.5t106.5 -242.5q0 -123 -82.5 -212t-218.5 -161l287 -299l182 297h223l-281 -434l330 -338h-264l-178 193q-92 -111 -196 -170.5t-238 -59.5q-244 0 -365 124t-121 296zM821 1158
q0 60 -49 102.5t-127 42.5t-135 -44.5t-57 -125.5q0 -105 143 -242q100 54 141 92.5t62.5 76.5t21.5 98zM305 390q0 -54 22.5 -100t61.5 -81t87 -54.5t121.5 -19.5t151 49.5t150.5 134.5l-350 365q-117 -68 -159 -110t-63.5 -86t-21.5 -98z" />
    <glyph glyph-name="quotesingle" unicode="'" horiz-adv-x="569" 
d="M365 946h-160v504h160v-504z" />
    <glyph glyph-name="parenleft" unicode="(" horiz-adv-x="569" 
d="M98 590q0 236 76 471t223 438l123 -78q-138 -217 -200 -406.5t-62 -424.5q0 -466 262 -828l-123 -81q-299 409 -299 909z" />
    <glyph glyph-name="parenright" unicode=")" horiz-adv-x="569" 
d="M471 590q0 -236 -76 -471.5t-223 -437.5l-123 77q204 321 233 515t29 317q0 467 -262 827l123 82q299 -409 299 -909z" />
    <glyph glyph-name="asterisk" unicode="*" horiz-adv-x="950" 
d="M403 1450h148v-301l285 96l43 -137l-285 -92l180 -244l-112 -84l-187 250l-182 -246l-113 84l182 240l-290 98l43 133l288 -98v301z" />
    <glyph glyph-name="plus" unicode="+" horiz-adv-x="1363" 
d="M135 700h467v467h160v-467h467v-159h-467v-467h-160v467h-467v159z" />
    <glyph glyph-name="comma" unicode="," horiz-adv-x="569" 
d="M266 -270h-168l142 503h198z" />
    <glyph glyph-name="hyphen" unicode="-" horiz-adv-x="647" 
d="M575 410h-503v172h503v-172z" />
    <glyph glyph-name="hyphen" unicode="&#xad;" horiz-adv-x="647" 
d="M575 410h-503v172h503v-172z" />
    <glyph glyph-name="period" unicode="." horiz-adv-x="569" 
d="M284.5 -12q-55.5 0 -95 40t-39.5 95t39.5 95t95 40t95.5 -40t40 -95t-40 -95t-95.5 -40z" />
    <glyph glyph-name="slash" unicode="/" horiz-adv-x="796" 
d="M143 -90l-143 53l655 1577l142 -53z" />
    <glyph glyph-name="zero" unicode="0" 
d="M70 708q0 98 8 183.5t29.5 168.5t57.5 158.5t92 132t133 90.5t179.5 34t179 -34t155 -112.5t122 -246t43.5 -319.5q0 -153 -20.5 -284t-75.5 -243.5t-152.5 -186.5t-251 -74t-251 74t-152.5 186.5t-75.5 243.5t-20.5 229zM266 714q0 -60 9.5 -158.5t40 -190t91 -155
t163 -63.5t202.5 105t100 473q0 439 -117.5 508.5t-185 69.5t-117 -29t-83 -77t-54 -108.5t-32 -125t-14.5 -127t-3 -122.5z" />
    <glyph glyph-name="one" unicode="1" 
d="M750 1450v-1450h-197v1225l-266 -246l-115 137l403 334h175z" />
    <glyph glyph-name="two" unicode="2" 
d="M836 1087q0 102 -72.5 165t-178.5 63q-105 0 -175 -59.5t-88 -163.5l-213 18q27 185 155 281t324.5 96t326 -104.5t129.5 -293.5t-101 -299t-150 -157l-478 -461h729v-172h-950v209l582 577q160 150 160 301z" />
    <glyph glyph-name="three" unicode="3" 
d="M848 397q0 103 -38 157t-114.5 90t-255.5 36v172q304 0 337.5 87t33.5 140q0 117 -69.5 176.5t-161.5 59.5t-157 -46t-97 -122l-201 67q57 139 175 206t263 67q192 0 318.5 -102t126.5 -293q0 -115 -69 -205t-179 -123v-4q133 -23 208.5 -123.5t75.5 -222.5
q0 -219 -141.5 -329t-324.5 -110q-390 0 -484 316l207 63q35 -104 93.5 -155.5t172.5 -51.5t197.5 73.5t83.5 176.5z" />
    <glyph glyph-name="four" unicode="4" 
d="M688 319h-618v201l577 930h238v-958h205v-173h-205v-319h-197v319zM688 1217h-4l-442 -725h446v725z" />
    <glyph glyph-name="five" unicode="5" 
d="M268 336q74 -189 248 -189q141 0 222 80.5t81 228.5t-97 227t-253 79q-55 0 -140 -19.5t-159 -56.5l16 764h779v-184h-588l-6 -363q72 31 184 31q214 0 337.5 -133t123.5 -345q0 -213 -146.5 -347t-363.5 -134q-147 0 -266 76t-170 217z" />
    <glyph glyph-name="six" unicode="6" 
d="M612 922q182 0 318.5 -118.5t136.5 -344.5t-141.5 -355t-354 -129t-356 131t-143.5 336q0 128 35 218t110 210l367 580h231l-364 -561h8q69 33 153 33zM268 448.5q0 -65.5 21.5 -121t61.5 -95t95.5 -62.5t123 -23t123 23t95 62.5t61 95t21.5 121t-21.5 121t-61 95.5
t-95 62.5t-123 22.5t-123 -22.5t-95.5 -62.5t-61.5 -95.5t-21.5 -121z" />
    <glyph glyph-name="seven" unicode="7" 
d="M86 1278v172h911v-168l-577 -1282h-221l587 1278h-700z" />
    <glyph glyph-name="eight" unicode="8" 
d="M569.5 -25q-206.5 0 -340 121t-133.5 320q0 129 77.5 225.5t199.5 128.5v6q-90 22 -159 110.5t-69 237.5q0 150 125 250.5t299.5 100.5t299 -100t124.5 -250t-68 -238.5t-159 -110.5v-6q188 -51 232 -169.5t44 -202.5t-36.5 -166t-133 -169.5t-303 -87.5zM797 1088
q0 97 -62.5 162t-160.5 65t-165 -64t-67 -160t62.5 -165.5t166.5 -69.5q105 0 165.5 67.5t60.5 164.5zM769 222q77 75 77 199t-79.5 193.5t-198.5 68.5q-120 -1 -197.5 -76t-77.5 -195t81 -192.5t200 -72.5q118 0 195 75z" />
    <glyph glyph-name="nine" unicode="9" 
d="M527 528q-85 0 -164.5 27t-144 83t-105.5 143t-41 206t40 210t107.5 152.5t157.5 93.5t246.5 32t300 -131t143.5 -336q0 -128 -35.5 -219.5t-109.5 -208.5l-367 -580h-231l364 561h-8q-68 -33 -153 -33zM870 1001.5q0 65.5 -21.5 121t-61 95t-95 62.5t-123 23t-123 -23
t-95.5 -62.5t-61.5 -95t-21.5 -121t21.5 -121t61.5 -95.5t95.5 -62.5t123 -22.5t123 22.5t95 62.5t61 95.5t21.5 121z" />
    <glyph glyph-name="colon" unicode=":" horiz-adv-x="569" 
d="M284.5 713q-55.5 0 -95 40t-39.5 95t39.5 95t95 40t95.5 -40t40 -95t-40 -95t-95.5 -40zM150 123q0 55 39.5 95t95 40t95.5 -40t40 -95t-40 -95t-95.5 -40t-95 40t-39.5 95z" />
    <glyph glyph-name="semicolon" unicode=";" horiz-adv-x="569" 
d="M266 -270h-168l142 503h198zM150 846q0 55 39.5 95t95 40t95.5 -40t40 -95t-40 -95t-95.5 -40t-95 40t-39.5 95z" />
    <glyph glyph-name="semicolon" unicode="&#x37e;" horiz-adv-x="569" 
d="M266 -270h-168l142 503h198zM150 846q0 55 39.5 95t95 40t95.5 -40t40 -95t-40 -95t-95.5 -40t-95 40t-39.5 95z" />
    <glyph glyph-name="less" unicode="&#x3c;" horiz-adv-x="1363" 
d="M1229 88l-1094 449v168l1094 450v-162l-926 -372l926 -373v-160z" />
    <glyph glyph-name="equal" unicode="=" horiz-adv-x="1363" 
d="M1229 860v-160h-1094v160h1094zM1229 539v-160h-1094v160h1094z" />
    <glyph glyph-name="greater" unicode="&#x3e;" horiz-adv-x="1363" 
d="M135 1153l1094 -448v-168l-1094 -451v162l926 373l-926 372v160z" />
    <glyph glyph-name="question" unicode="?" horiz-adv-x="1024" 
d="M430 406v124q0 100 24.5 144.5t53 72t64.5 62.5t69 66.5t59.5 65.5t44 72t17.5 107.5t-62.5 132t-158.5 62.5t-159 -63.5t-75 -166.5l-209 21q27 178 149 279.5t300 101.5t294.5 -101.5t116.5 -277.5q0 -139 -86 -246l-122 -127l-21 -18q-67 -63 -84.5 -100.5
t-17.5 -120.5v-90h-197zM391 123q0 55 40 95t95.5 40t95.5 -40t40 -95t-40 -95t-95.5 -40t-95.5 40t-40 95z" />
    <glyph glyph-name="at" unicode="@" horiz-adv-x="1638" 
d="M713 446q61 0 113.5 36t109.5 119.5t57 211.5q0 72 -31.5 126t-100.5 54q-135 0 -214.5 -114t-79.5 -273q0 -160 146 -160zM854 1153q165 0 219 -156h4l33 117h150l-173 -567q-10 -35 -10 -51q-1 -50 51 -50q100 -1 180.5 124.5t80.5 262.5q0 248 -156 383.5t-381 135.5
q-259 0 -430.5 -182.5t-171.5 -450.5q0 -269 176 -445t436 -176q147 0 275.5 53.5t201.5 153.5h162q-87 -157 -267.5 -249.5t-358.5 -92.5q-179 0 -319 59.5t-243.5 163t-163 243.5t-59.5 299t60.5 297t164 240.5t241.5 162t288 59.5t276.5 -47t222 -130t150.5 -197t55 -247
t-48 -239.5t-120.5 -182t-157 -116.5t-146.5 -41t-99 33.5t-39 97.5h-8q-126 -131 -253 -131q-128 0 -205 92t-77 210q0 230 129 397t330 167z" />
    <glyph glyph-name="A" unicode="A" horiz-adv-x="1441" 
d="M641 1450h178l621 -1450h-230l-145 358h-690l-144 -358h-229zM993 530l-270 666h-4l-275 -666h549z" />
    <glyph glyph-name="B" unicode="B" horiz-adv-x="1290" 
d="M186 1450h504q196 0 318 -91.5t122 -271.5q0 -125 -69.5 -203.5t-179.5 -115.5v-4q131 -8 222 -112t91 -249q0 -188 -145.5 -295.5t-364.5 -107.5h-498v1450zM383 848h268q188 0 229.5 79t41.5 151t-55.5 136t-174.5 64h-309v-430zM383 172h289q122 0 185 37t95.5 84
t32.5 125q0 129 -84 193.5t-227 64.5h-291v-504z" />
    <glyph glyph-name="C" unicode="C" horiz-adv-x="1441" 
d="M818 -37q-148 0 -286.5 65.5t-235.5 172t-148.5 240.5t-51.5 287t55.5 295t210.5 303t490 161q143 0 281.5 -55.5t226.5 -169.5l-164 -125q-61 80 -155.5 123t-206.5 43t-211 -46.5t-208.5 -170t-109.5 -367.5t147.5 -408t389.5 -164q243 0 383 195l166 -125
q-101 -145 -263 -199.5t-310 -54.5z" />
    <glyph glyph-name="D" unicode="D" horiz-adv-x="1517" 
d="M154 1450h505q282 0 453.5 -117t240 -283t68.5 -315t-51 -279t-151.5 -231.5t-249 -163t-342.5 -61.5h-473v1450zM350 184h248q263 0 438.5 141t175.5 400q0 196 -85 310t-195.5 172.5t-286.5 58.5h-295v-1082z" />
    <glyph glyph-name="E" unicode="E" horiz-adv-x="1251" 
d="M186 1450h936v-184h-739v-432h688v-185h-688v-465h776v-184h-973v1450z" />
    <glyph glyph-name="F" unicode="F" horiz-adv-x="1175" 
d="M186 1450h912v-184h-715v-455h666v-184h-666v-627h-197v1450z" />
    <glyph glyph-name="G" unicode="G" horiz-adv-x="1593" 
d="M1225 627h-322v184h518v-715q-153 -95 -318 -114t-231 -19q-184 0 -328.5 61.5t-296 221.5t-151.5 479q0 162 56.5 301t213 300t499.5 161t528 -189l-140 -149q-161 154 -401 154t-393.5 -166.5t-153.5 -411.5q0 -246 162.5 -412t392.5 -166t365 76v404z" />
    <glyph glyph-name="H" unicode="H" horiz-adv-x="1517" 
d="M186 1450h197v-602h752v602h196v-1450h-196v664h-752v-664h-197v1450z" />
    <glyph glyph-name="I" unicode="I" horiz-adv-x="569" 
d="M186 1450h197v-1450h-197v1450z" />
    <glyph glyph-name="J" unicode="J" horiz-adv-x="987" 
d="M639 1450h197v-1036q0 -245 -132.5 -348t-289.5 -103q-156 0 -261.5 79t-134.5 239l193 43q16 -82 67.5 -129.5t129.5 -47.5q133 0 182 89.5t49 240.5v973z" />
    <glyph glyph-name="K" unicode="K" horiz-adv-x="1327" 
d="M186 1450h197v-627h16l641 627h275l-701 -670l748 -780h-287l-676 725h-16v-725h-197v1450z" />
    <glyph glyph-name="L" unicode="L" horiz-adv-x="1062" 
d="M186 1450h197v-1266h666v-184h-863v1450z" />
    <glyph glyph-name="M" unicode="M" horiz-adv-x="1855" 
d="M172 1450h293l461 -1098h8l457 1098h292v-1450h-196v1192h-4l-490 -1192h-131l-489 1192h-4v-1192h-197v1450z" />
    <glyph glyph-name="N" unicode="N" horiz-adv-x="1630" 
d="M186 1450h258l799 -1192h4v1192h197v-1450h-250l-807 1192h-4v-1192h-197v1450z" />
    <glyph glyph-name="O" unicode="O" horiz-adv-x="1703" 
d="M852 -37q-166 0 -305 58.5t-238.5 161t-156 241.5t-56.5 301t56.5 301t156 241.5t238.5 161t305 58.5t305 -58.5t238.5 -161t156 -241.5t56.5 -301t-56.5 -301t-156 -241.5t-238.5 -161t-305 -58.5zM852 147q125 0 225.5 46.5t172 124t110.5 183t39 224.5t-39 224.5
t-110.5 183t-172 124t-225.5 46.5t-225.5 -46.5t-172 -124t-110.5 -183t-39 -224.5t39 -224.5t110.5 -183t172 -124t225.5 -46.5z" />
    <glyph glyph-name="P" unicode="P" horiz-adv-x="1214" 
d="M186 1450h510q252 0 358.5 -119.5t106.5 -337t-162.5 -286t-302.5 -68.5h-313v-639h-197v1450zM383 811h258q219 0 265 80t46 184.5t-86.5 153.5t-224.5 49h-258v-467z" />
    <glyph glyph-name="Q" unicode="Q" horiz-adv-x="1703" 
d="M1683 0h-835q-154 0 -291 55.5t-239.5 153.5t-162 234.5t-59.5 296.5t57.5 297t216.5 293.5t476 156.5q154 0 288 -55.5t234 -152.5t158.5 -229t58.5 -256q0 -222 -87 -383.5t-245 -234.5v-4h430v-172zM1376 749q0 238 -153 396t-381 158t-382.5 -159.5t-154.5 -393.5
t150 -400t385.5 -166t385.5 163.5t150 401.5z" />
    <glyph glyph-name="R" unicode="R" horiz-adv-x="1251" 
d="M186 1450h510q252 0 358.5 -119.5t106.5 -274.5q0 -154 -98.5 -266t-257.5 -128l412 -662h-246l-369 639h-219v-639h-197v1450zM383 811h258q219 0 265 80t46 184.5t-86.5 153.5t-224.5 49h-258v-467z" />
    <glyph glyph-name="S" unicode="S" 
d="M518 147q128 0 217.5 66t89.5 163t-53 141t-132 74t-172 57.5t-172 76.5t-132 132t-53 224q0 63 27.5 135t127 171.5t336.5 99.5q119 0 227.5 -33t190.5 -133l-160 -145q-37 57 -104.5 92t-151.5 35q-150 0 -217.5 -69.5t-67.5 -156.5q0 -88 53.5 -137t132.5 -80
t172 -55.5t172 -68.5t132 -118t53 -192q0 -219 -144 -341t-360 -122q-139 0 -264 49t-198 152l161 139q53 -80 137 -118t152 -38z" />
    <glyph glyph-name="T" unicode="T" horiz-adv-x="1175" 
d="M489 1266h-466v184h1130v-184h-467v-1266h-197v1266z" />
    <glyph glyph-name="U" unicode="U" horiz-adv-x="1441" 
d="M356 1450v-889q0 -160 89 -287t276 -127t275.5 126t88.5 288v889h197v-920q0 -247 -160 -407t-402 -160t-401 160.5t-159 406.5v920h196z" />
    <glyph glyph-name="V" unicode="V" horiz-adv-x="1290" 
d="M-12 1450h227l426 -1180h4l442 1180h216l-572 -1450h-184z" />
    <glyph glyph-name="W" unicode="W" horiz-adv-x="1970" 
d="M2 1450h205l319 -1159h4l342 1159h226l342 -1159h4l319 1159h205l-422 -1450h-207l-352 1184h-4l-350 -1184h-207z" />
    <glyph glyph-name="X" unicode="X" horiz-adv-x="1327" 
d="M522 762l-487 688h252l377 -557l372 557h246l-483 -686l532 -764h-258l-416 629l-417 -629h-244z" />
    <glyph glyph-name="Y" unicode="Y" horiz-adv-x="1253" 
d="M725 0h-197v618l-548 832h251l396 -637l407 637h240l-549 -832v-618z" />
    <glyph glyph-name="Z" unicode="Z" horiz-adv-x="1214" 
d="M90 1266v184h1047v-184l-822 -1082h834v-184h-1083v184l825 1082h-801z" />
    <glyph glyph-name="bracketleft" unicode="[" horiz-adv-x="569" 
d="M147 1499h357v-135h-185v-1548h185v-135h-357v1818z" />
    <glyph glyph-name="backslash" unicode="\" horiz-adv-x="796" 
d="M0 1487l141 53l656 -1577l-144 -53z" />
    <glyph glyph-name="bracketright" unicode="]" horiz-adv-x="569" 
d="M66 -184h184v1548h-184v135h356v-1818h-356v135z" />
    <glyph glyph-name="asciicircum" unicode="^" horiz-adv-x="1363" 
d="M600 1450h164l436 -885h-170l-348 723l-348 -723h-170z" />
    <glyph glyph-name="underscore" unicode="_" horiz-adv-x="1024" 
d="M0 -154h1024v-102h-1024v102z" />
    <glyph glyph-name="grave" unicode="`" horiz-adv-x="491" 
d="M381 1155h-170l-305 295h262z" />
    <glyph glyph-name="a" unicode="a" horiz-adv-x="1062" 
d="M768 147q-112 -172 -318 -172q-165 0 -261.5 76.5t-96.5 214.5q0 175 147 255.5t388 80.5h135v41q0 81 -60 143t-182 62t-181.5 -46t-84.5 -65l-111 115q78 72 180.5 107.5t206.5 35.5q200 0 302 -93t102 -230v-496q0 -98 8 -176h-164q-6 74 -6 147h-4zM276 281
q0 -158 209 -158q143 0 210 85t67 198v61h-98q-164 0 -240 -27.5t-112 -64.5t-36 -94z" />
    <glyph glyph-name="b" unicode="b" horiz-adv-x="1251" 
d="M139 1548h185v-717h4q49 76 141 120t201 44t200 -38.5t155.5 -107.5t99 -162t34.5 -256t-135 -309.5t-358 -146.5q-98 0 -191.5 43t-146.5 121h-4v-139h-185v1548zM643 147q74 0 133.5 26t100.5 70t63.5 106.5t22.5 136t-22.5 136t-63.5 106.5t-100.5 69.5t-133.5 25.5
t-133 -25.5t-100 -69.5t-63.5 -106.5t-22.5 -136t22.5 -136t63.5 -106.5t100 -70t133 -26z" />
    <glyph glyph-name="c" unicode="c" horiz-adv-x="987" 
d="M834 713q-104 108 -246 108t-220.5 -100.5t-78.5 -241.5t87 -236.5t226 -95.5t236 109l131 -131q-135 -150 -364 -150t-371 140t-142 365.5t140 369t370 143.5t371 -153z" />
    <glyph glyph-name="d" unicode="d" horiz-adv-x="1251" 
d="M1112 0h-184v139h-4q-53 -78 -146.5 -121t-199.5 -43t-196.5 39t-155 109t-99.5 162t-35 256t135.5 309t358.5 145q104 0 196 -44t142 -120h4v717h184v-1548zM608.5 147q73.5 0 133 26t100.5 70t63.5 106.5t22.5 136t-22.5 136t-63.5 106.5t-100.5 69.5t-133 25.5
t-133 -25.5t-100.5 -69.5t-63.5 -106.5t-22.5 -136t22.5 -136t63.5 -106.5t100.5 -70t133 -26z" />
    <glyph glyph-name="e" unicode="e" 
d="M582 -25q-228 0 -364 144.5t-136 363t141.5 365.5t368.5 147t346 -149.5t119 -362.5v-65h-778q0 -123 97.5 -203t237.5 -80t258 146l140 -107q-154 -199 -430 -199zM580 848q-134 0 -217.5 -89.5t-83.5 -193.5h581q-7 199 -109.5 241t-170.5 42z" />
    <glyph glyph-name="f" unicode="f" horiz-adv-x="681" 
d="M557 1413q-97 0 -128.5 -53t-31.5 -166v-223h219v-160h-221v-811h-184v811h-209v160h209v217q0 195 74.5 290t257.5 95q82 0 137 -14l-21 -164q-49 18 -102 18z" />
    <glyph glyph-name="g" unicode="g" horiz-adv-x="1251" 
d="M928 16v144h-6q-53 -88 -144.5 -130t-194.5 -42t-194.5 37.5t-157 104.5t-102.5 158t-37 252.5t135 308t359 146.5q98 0 191 -43t147 -121h4v140h184v-963q0 -220 -146 -360t-384 -140q-139 0 -255 39t-221 136l125 155q145 -157 339 -157t276 96t82 239zM289 487
q0 -149 86 -238t233.5 -89t233.5 89t86 238t-87.5 242.5t-232 93.5t-232 -93.5t-87.5 -242.5z" />
    <glyph glyph-name="h" unicode="h" 
d="M139 1548h185v-727h4q35 78 121 126t177 48q174 0 273.5 -93t99.5 -277v-625h-184v573q0 128 -62 189t-159 61q-190 0 -230 -119.5t-40 -203.5v-500h-185v1548z" />
    <glyph glyph-name="i" unicode="i" horiz-adv-x="491" 
d="M154 971h184v-971h-184v971zM111 1319q0 55 39.5 95t95 40t95.5 -40t40 -95t-40 -95t-95.5 -40t-95 40t-39.5 95z" />
    <glyph glyph-name="j" unicode="j" horiz-adv-x="491" 
d="M18 -319q76 0 106 48t30 140v1102h184v-1110q0 -138 -33 -204.5t-93 -107.5t-147 -41t-143 19l21 170q43 -16 75 -16zM111 1319q0 55 39.5 95t95 40t95.5 -40t40 -95t-40 -95t-95.5 -40t-95 40t-39.5 95z" />
    <glyph glyph-name="k" unicode="k" horiz-adv-x="1062" 
d="M139 1548h185v-999l417 420h256l-452 -441l491 -528h-262l-450 504v-504h-185v1548z" />
    <glyph glyph-name="l" unicode="l" horiz-adv-x="491" 
d="M154 1548h184v-1548h-184v1548z" />
    <glyph glyph-name="m" unicode="m" horiz-adv-x="1744" 
d="M627 995q209 0 303 -180q47 90 133.5 135t186.5 45q194 0 275 -120t81 -310v-565h-185v541q0 133 -29.5 184t-70.5 74.5t-109 23.5q-133 0 -190 -82t-57 -211v-530h-185v508q0 157 -28.5 212.5t-69 79t-98.5 23.5q-116 0 -188 -81t-72 -238v-504h-185v971h172v-152h4
q6 20 32 51t94.5 78t185.5 47z" />
    <glyph glyph-name="n" unicode="n" 
d="M139 971h185v-150h4q35 78 121 126t177 48q174 0 273.5 -93t99.5 -277v-625h-184v573q0 128 -62 189t-159 61q-190 0 -230 -119.5t-40 -203.5v-500h-185v971z" />
    <glyph glyph-name="o" unicode="o" horiz-adv-x="1216" 
d="M289 485.5q0 -73.5 22.5 -136t63.5 -106.5t100.5 -70t133 -26t133 26t100.5 70t63.5 106.5t22.5 136t-22.5 136t-63.5 106.5t-100.5 69.5t-133 25.5t-133 -25.5t-100.5 -69.5t-63.5 -106.5t-22.5 -136zM92 485.5q0 106.5 40 198.5t109.5 161.5t164 109.5t203 40
t202.5 -40t163.5 -109.5t109.5 -161.5t40 -198.5t-40 -199.5t-109.5 -162t-163.5 -109t-202.5 -40t-203 40t-164 109t-109.5 162t-40 199.5z" />
    <glyph glyph-name="p" unicode="p" horiz-adv-x="1251" 
d="M139 971h185v-140h4q53 78 146 121t199 43q217 0 351.5 -146t134.5 -366t-135.5 -364t-357.5 -144q-104 0 -196.5 44t-141.5 120h-4v-717h-185v1549zM643 823q-74 0 -133 -25.5t-100 -69.5t-63.5 -106.5t-22.5 -136t22.5 -136t63.5 -106.5t100 -70t133 -26t133.5 26
t100.5 70t63.5 106.5t22.5 136t-22.5 136t-63.5 106.5t-100.5 69.5t-133.5 25.5z" />
    <glyph glyph-name="q" unicode="q" horiz-adv-x="1251" 
d="M1112 -467h-184v606h-4q-49 -76 -141.5 -120t-200.5 -44q-217 0 -353.5 144.5t-136.5 363.5t135 365.5t359 146.5q98 0 191 -43t147 -121h4v140h184v-1438zM608.5 823q-73.5 0 -133 -25.5t-100.5 -69.5t-63.5 -106.5t-22.5 -136t22.5 -136t63.5 -106.5t100.5 -70t133 -26
t133 26t100.5 70t63.5 106.5t22.5 136t-22.5 136t-63.5 106.5t-100.5 69.5t-133 25.5z" />
    <glyph glyph-name="r" unicode="r" horiz-adv-x="757" 
d="M602 799q-278 0 -278 -312v-487h-185v971h185v-150h4q35 76 116.5 125t150.5 49t105 -12l-8 -199q-58 15 -90 15z" />
    <glyph glyph-name="s" unicode="s" horiz-adv-x="909" 
d="M197 262q115 -115 213 -115q103 0 161 33t58 82q0 82 -69.5 111t-146.5 45q-157 33 -236 91.5t-79 194.5t110.5 213.5t258.5 77.5q98 0 188 -36.5t144 -122.5l-144 -109q-77 96 -198 96q-66 0 -114 -27.5t-48 -75.5q0 -79 66.5 -107t153.5 -46q164 -34 237 -98.5
t73 -187.5q0 -153 -114.5 -229.5t-257.5 -76.5q-142 0 -233 37t-163 135z" />
    <glyph glyph-name="t" unicode="t" horiz-adv-x="757" 
d="M500 -25q-106 0 -165 30t-86.5 77t-32.5 105.5t-5 117.5v506h-213v160h213v272h184v-272h264v-160h-264v-440q0 -112 15.5 -148.5t43 -56t93.5 -19.5t119 29v-168q-60 -33 -166 -33z" />
    <glyph glyph-name="u" unicode="u" 
d="M999 0h-184v150h-4q-35 -78 -121 -126.5t-178 -48.5q-174 0 -273.5 94.5t-99.5 276.5v625h185v-574q0 -190 89 -220t139 -30q114 0 188.5 80.5t74.5 243.5v500h184v-971z" />
    <glyph glyph-name="v" unicode="v" horiz-adv-x="1024" 
d="M23 971h213l290 -744l279 744h196l-380 -971h-203z" />
    <glyph glyph-name="w" unicode="w" horiz-adv-x="1554" 
d="M23 971h206l220 -725h4l231 725h195l245 -725h4l209 725h195l-313 -971h-187l-256 725h-4l-231 -725h-199z" />
    <glyph glyph-name="x" unicode="x" horiz-adv-x="1062" 
d="M406 518l-345 453h238l236 -344l231 344h223l-332 -453l394 -518h-238l-287 408l-286 -408h-228z" />
    <glyph glyph-name="y" unicode="y" horiz-adv-x="1024" 
d="M229 -492q-119 0 -184 27l23 168q100 -42 170 -16t92 71t37 82l59 154l-403 977h213l288 -758h4l275 758h198l-460 -1180q-59 -149 -126 -216t-186 -67z" />
    <glyph glyph-name="z" unicode="z" horiz-adv-x="948" 
d="M90 811v160h758v-164l-555 -647h584v-160h-805v166l551 645h-533z" />
    <glyph glyph-name="braceleft" unicode="{" horiz-adv-x="681" 
d="M623 1352h-93q-54 0 -79 -51t-25 -127v-310q3 -124 -56 -191.5t-116 -80.5v-6q55 -6 115.5 -70.5t56.5 -204.5v-307q0 -117 37 -146.5t67 -29.5h93v-147h-154q-86 0 -150.5 80.5t-64.5 232.5v274q-4 113 -53 176.5t-119 63.5v160q70 0 119 63.5t53 175.5v324
q0 123 66 195.5t149 72.5h154v-147z" />
    <glyph glyph-name="bar" unicode="|" horiz-adv-x="454" 
d="M147 1548h160v-1585h-160v1585z" />
    <glyph glyph-name="braceright" unicode="}" horiz-adv-x="681" 
d="M59 -172h93q54 0 79 51t25 127v309q-3 123 56 191.5t116 81.5v6q-55 6 -115.5 70.5t-56.5 203.5v308q0 117 -37 146.5t-67 29.5h-93v147h154q85 0 150 -81t65 -232v-275q0 -113 51 -176t121 -63v-160q-70 0 -121 -63.5t-51 -176.5v-323q0 -123 -65 -195.5t-150 -72.5
h-154v147z" />
    <glyph glyph-name="asciitilde" unicode="~" horiz-adv-x="1363" 
d="M197 594q105 180 253 180q80 0 138.5 -22.5t112 -51t104.5 -52t99 -23.5t93 31.5t88 117.5l82 -127q-106 -180 -262 -180q-84 0 -190.5 51t-160.5 73.5t-103 22.5q-107 0 -172 -147z" />
    <glyph glyph-name="Euro" 
d="M358 724v-48q0 -49 2 -72h496l-35 -133h-448q27 -172 107.5 -258t234.5 -86t256 121l100 -101q-53 -72 -149.5 -122t-214.5 -50q-435 0 -512 496h-148l39 133h94q-2 24 -2 50v55q0 76 6 143h-135l43 137h117q57 241 206.5 363.5t345.5 122.5q195 0 314 -74l-43 -154
q-94 70 -247 70q-305 0 -394 -328h565l-34 -137h-555q-9 -79 -9 -128z" />
    <glyph glyph-name="Euro" unicode="&#x20ac;" 
d="M358 724v-48q0 -49 2 -72h496l-35 -133h-448q27 -172 107.5 -258t234.5 -86t256 121l100 -101q-53 -72 -149.5 -122t-214.5 -50q-435 0 -512 496h-148l39 133h94q-2 24 -2 50v55q0 76 6 143h-135l43 137h117q57 241 206.5 363.5t345.5 122.5q195 0 314 -74l-43 -154
q-94 70 -247 70q-305 0 -394 -328h565l-34 -137h-555q-9 -79 -9 -128z" />
    <glyph glyph-name="Zcaron" horiz-adv-x="1214" 
d="M90 1266v184h1047v-184l-822 -1082h834v-184h-1083v184l825 1082h-801zM270 1827h179l159 -197l152 197h186l-229 -295h-217z" />
    <glyph glyph-name="Zcaron" unicode="&#x17d;" horiz-adv-x="1214" 
d="M90 1266v184h1047v-184l-822 -1082h834v-184h-1083v184l825 1082h-801zM270 1827h179l159 -197l152 197h186l-229 -295h-217z" />
    <glyph glyph-name="zcaron" horiz-adv-x="948" 
d="M90 811v160h758v-164l-555 -647h584v-160h-805v166l551 645h-533zM137 1450h178l160 -197l152 197h186l-229 -295h-217z" />
    <glyph glyph-name="zcaron" unicode="&#x17e;" horiz-adv-x="948" 
d="M90 811v160h758v-164l-555 -647h584v-160h-805v166l551 645h-533zM137 1450h178l160 -197l152 197h186l-229 -295h-217z" />
    <glyph glyph-name="exclamdown" unicode="&#xa1;" horiz-adv-x="569" 
d="M190 578h197v-1033h-197v1033zM420 872.5q0 -55.5 -40 -95.5t-95.5 -40t-95 40t-39.5 95.5t39.5 95.5t95 40t95.5 -40t40 -95.5z" />
    <glyph glyph-name="cent" unicode="&#xa2;" 
d="M700 -160h-110v135q-200 20 -321.5 162.5t-121.5 349.5t120.5 343.5t322.5 164.5v135h110v-135q98 -4 189.5 -44t152.5 -111l-133 -121q-39 47 -94 81t-115 36v-701q129 4 218 107l120 -119q-112 -129 -338 -148v-135zM400.5 259.5q68.5 -101.5 189.5 -124.5v701
q-122 -19 -190 -117.5t-68 -228.5q0 -129 68.5 -230.5z" />
    <glyph glyph-name="sterling" unicode="&#xa3;" 
d="M553 975v-156h332v-147h-332v-500h504v-172h-910v172h209v500h-196v147h196v205q0 187 118 319t330 132t349 -127l-125 -144q-103 99 -201 99q-188 0 -231 -119t-43 -209z" />
    <glyph glyph-name="currency" unicode="&#xa4;" 
d="M569.5 1253q168.5 0 309.5 -100l100 98l117 -114l-101 -101q101 -139 101 -311.5t-101 -306.5l101 -101l-117 -116l-100 100q-133 -100 -306 -100q-172 0 -313 100l-100 -100l-117 116l100 101q-100 139 -100 310t100 308l-100 101l117 114l100 -98q141 100 309.5 100z
M203 727q0 -76 28.5 -142.5t78.5 -116.5t117 -79t142.5 -29t142 29t117 79t79 116.5t28.5 142.5t-28.5 142.5t-79 116.5t-117 79t-142 29t-142.5 -29t-117 -79t-78.5 -116.5t-28.5 -142.5z" />
    <glyph glyph-name="yen" unicode="&#xa5;" 
d="M483 381h-350v135h350v109l-34 57h-316v135h234l-377 633h205l366 -647l379 647h209l-381 -633h238v-135h-316l-35 -57v-109h351v-135h-351v-381h-172v381z" />
    <glyph glyph-name="brokenbar" unicode="&#xa6;" horiz-adv-x="454" 
d="M147 586h160v-623h-160v623zM147 1548h160v-622h-160v622z" />
    <glyph glyph-name="section" unicode="&#xa7;" 
d="M408 1166q0 -72 45 -113t111.5 -75t145 -66.5t145.5 -78t112 -107.5t45 -154t-46 -160t-124 -109q133 -91 133 -252t-127 -253.5t-283 -92.5q-334 0 -438 248l178 84q54 -160 254 -160q84 0 145.5 45t61.5 133q0 53 -45 92t-111.5 73t-145.5 69t-190.5 105.5
t-111.5 199.5t56 200.5t144 114.5q-163 90 -163 244.5t125 244t304 89.5t258 -75t103 -130l-172 -94q-50 123 -207 127q-80 0 -141 -38.5t-61 -110.5zM346 650q0 -74 48 -112t153 -89l158 -76q47 29 84.5 78t37.5 94q0 74 -46.5 117t-121.5 79l-161 78q-152 -52 -152 -169z
" />
    <glyph glyph-name="dieresis" unicode="&#xa8;" horiz-adv-x="491" 
d="M37 1462q47 0 87 -32.5t40 -85.5t-36 -90t-91 -37t-91 36.5t-36 90.5t40 86t87 32zM455 1462q47 0 87 -32.5t40 -85.5t-36 -90t-91.5 -37t-91 36.5t-35.5 90.5t40 86t87 32z" />
    <glyph glyph-name="copyright" unicode="&#xa9;" horiz-adv-x="1638" 
d="M57 725q0 158 60.5 296t164 241.5t242 164t296 60.5t295.5 -60.5t241.5 -164t164 -241.5t60.5 -296t-60.5 -296t-164 -241.5t-241.5 -164t-295.5 -60.5t-296 60.5t-242 164t-164 241.5t-60.5 296zM825 264q-211 0 -332.5 127.5t-121.5 340t117.5 339.5t330.5 127
q154 0 258.5 -79t128.5 -234h-157q-44 166 -228 166q-147 0 -219 -84t-72 -227t79.5 -235.5t215.5 -92.5q187 0 224 174h157q-33 -147 -133 -234.5t-248 -87.5zM193 725q0 -129 49 -243.5t134 -199.5t199.5 -134.5t243.5 -49.5t244 49.5t200 134.5t134 199.5t49 243.5
t-49 243.5t-134 199.5t-200 134.5t-244 49.5t-243.5 -49.5t-199.5 -134.5t-134 -199.5t-49 -243.5z" />
    <glyph glyph-name="ordfeminine" unicode="&#xaa;" horiz-adv-x="690" 
d="M631 1272v-402h-135v91l-4 2q-52 -105 -205 -105q-86 0 -151.5 45.5t-65.5 125.5q0 139 114 177.5t287 38.5h25v21q0 41 -36 69.5t-104 28.5q-110 0 -182 -68l-72 93q98 86 252 86q230 0 253.5 -82t23.5 -121zM205 1042q0 -73 123 -73q86 0 127 39t41 100v39h-4
q-126 0 -178 -11.5t-80.5 -33t-28.5 -60.5z" />
    <glyph glyph-name="guillemotleft" unicode="&#xab;" horiz-adv-x="1024" 
d="M96 498l297 442l127 -84l-239 -358l241 -359l-127 -84zM502 498l297 442l127 -84l-240 -358l242 -359l-127 -84z" />
    <glyph glyph-name="logicalnot" unicode="&#xac;" horiz-adv-x="1363" 
d="M1229 289h-160v411h-934v160h1094v-571z" />
    <glyph glyph-name="registered" unicode="&#xae;" horiz-adv-x="1638" 
d="M862 1165q307 0 307 -262q0 -115 -59 -172t-149 -67l227 -369h-168l-217 356h-117v-356h-160v870h336zM686 786h117q93 0 131.5 15.5t57 40t18.5 84.5t-53.5 82t-153.5 22h-117v-244zM57 725q0 158 60.5 296t164 241.5t242 164t296 60.5t295.5 -60.5t241.5 -164
t164 -241.5t60.5 -296t-60.5 -296t-164 -241.5t-241.5 -164t-295.5 -60.5t-296 60.5t-242 164t-164 241.5t-60.5 296zM193 725q0 -129 49 -243.5t134 -199.5t199.5 -134.5t243.5 -49.5t244 49.5t200 134.5t134 199.5t49 243.5t-49 243.5t-134 199.5t-200 134.5t-244 49.5
t-243.5 -49.5t-199.5 -134.5t-134 -199.5t-49 -243.5z" />
    <glyph glyph-name="macron" unicode="&#xaf;" horiz-adv-x="491" 
d="M541 1229h-590v135h590v-135z" />
    <glyph glyph-name="macron" unicode="&#x2c9;" horiz-adv-x="491" 
d="M541 1229h-590v135h590v-135z" />
    <glyph glyph-name="degree" unicode="&#xb0;" horiz-adv-x="819" 
d="M104 1169.5q0 63.5 24 118.5t66 96t97 66t118.5 25t119 -25t96.5 -66t65.5 -96t24.5 -118.5t-24.5 -119t-65.5 -97.5t-96.5 -65.5t-119 -23.5t-118.5 23.5t-97 65.5t-66 97.5t-24 119zM240 1169.5q0 -71.5 49 -121t120.5 -49.5t121 49.5t49.5 121t-49.5 120.5t-121 49
t-120.5 -49t-49 -120.5z" />
    <glyph glyph-name="plusminus" unicode="&#xb1;" horiz-adv-x="1363" 
d="M135 805h467v334h160v-334h467v-160h-467v-307h-160v307h-467v160zM135 264h1094v-160h-1094v160z" />
    <glyph glyph-name="twosuperior" unicode="&#xb2;" horiz-adv-x="739" 
d="M512 1228q0 50 -39 80.5t-96 30.5t-95 -32.5t-42 -87.5l-172 12q10 119 97 181.5t217 62.5t216 -64t86 -182q0 -82 -41 -141.5t-104 -112.5l-289 -248h436v-135h-633v156l367 327q31 29 61.5 66t30.5 87z" />
    <glyph glyph-name="threesuperior" unicode="&#xb3;" horiz-adv-x="739" 
d="M373 715q63 0 110 35.5t47 87.5q0 86 -57.5 112.5t-150.5 26.5h-35v135h37q87 0 135.5 23t48.5 83t-37 90.5t-96 30.5q-107 0 -142 -92l-170 41q31 98 115 142.5t167 44.5q151 0 237 -60.5t86 -169.5q0 -72 -43 -126t-117 -70v-5q90 -10 136 -70.5t46 -130.5
q0 -127 -91 -195t-217 -68q-275 0 -333 202l170 41q34 -108 154 -108z" />
    <glyph glyph-name="acute" unicode="&#xb4;" horiz-adv-x="491" 
d="M324 1450h262l-305 -295h-170z" />
    <glyph glyph-name="mu" unicode="&#xb5;" 
d="M139 971h185v-574q0 -190 89 -220t139 -30q114 0 188.5 80.5t74.5 243.5v500h184v-971h-184v150h-4q-35 -78 -121 -126.5t-189 -48.5t-177 37v-479h-185v1438z" />
    <glyph glyph-name="mu" unicode="&#x3bc;" 
d="M139 971h185v-574q0 -190 89 -220t139 -30q114 0 188.5 80.5t74.5 243.5v500h184v-971h-184v150h-4q-35 -78 -121 -126.5t-189 -48.5t-177 37v-479h-185v1438z" />
    <glyph glyph-name="paragraph" unicode="&#xb6;" horiz-adv-x="1228" 
d="M532 651q-183 0 -305.5 108.5t-122.5 270.5q0 201 125 310.5t342 109.5h510v-1708h-159v1573h-230v-1573h-160v909z" />
    <glyph glyph-name="periodcentered" unicode="&#xb7;" horiz-adv-x="569" 
d="M150 620.5q0 55.5 39.5 95.5t95 40t95.5 -40t40 -95.5t-40 -95.5t-95.5 -40t-95 40t-39.5 95.5z" />
    <glyph glyph-name="periodcentered" unicode="&#x2219;" horiz-adv-x="569" 
d="M150 620.5q0 55.5 39.5 95.5t95 40t95.5 -40t40 -95.5t-40 -95.5t-95.5 -40t-95 40t-39.5 95.5z" />
    <glyph glyph-name="cedilla" unicode="&#xb8;" horiz-adv-x="491" 
d="M334 -276q0 32 -33.5 64t-159.5 -3l-43 37l125 178h101l-91 -125h60q125 0 156.5 -54t31.5 -101q0 -92 -78 -139.5t-155 -47.5q-138 0 -238 47l39 82q76 -31 158 -31q127 1 127 93z" />
    <glyph glyph-name="onesuperior" unicode="&#xb9;" horiz-adv-x="739" 
d="M463 1475v-883h-148v735l-174 -147l-86 94l262 201h146z" />
    <glyph glyph-name="ordmasculine" unicode="&#xba;" horiz-adv-x="790" 
d="M395.5 1475q153.5 0 244.5 -84t91 -225.5t-91 -224.5t-244.5 -83t-245 83t-91.5 224.5t91.5 225.5t245 84zM395 1352q-92 0 -140 -50.5t-48 -136.5t48 -135t140 -49t140.5 49t48.5 135t-48.5 136.5t-140.5 50.5z" />
    <glyph glyph-name="guillemotright" unicode="&#xbb;" horiz-adv-x="1024" 
d="M928 498l-297 -443l-127 84l239 359l-241 358l127 84zM522 498l-297 -443l-127 84l240 359l-242 358l127 84z" />
    <glyph glyph-name="onequarter" unicode="&#xbc;" horiz-adv-x="1708" 
d="M475 1475v-883h-147v735l-174 -147l-86 94l262 201h145zM1378 193h-401v118l375 572h161v-555h127v-135h-127v-193h-135v193zM1366 711h-4l-238 -383h242v383zM1210 1516l123 -66l-899 -1516l-123 66z" />
    <glyph glyph-name="onehalf" unicode="&#xbd;" horiz-adv-x="1708" 
d="M471 1475v-883h-147v735l-174 -147l-87 94l263 201h145zM1470 636q0 50 -38 81t-96 31t-96 -33t-42 -88l-172 12q10 119 97 181.5t216 62.5t216 -63t87 -183q0 -82 -40.5 -141.5t-104.5 -112.5l-289 -248h437v-135h-633v156l366 327q31 29 61.5 66t30.5 87zM1186 1516
l123 -66l-899 -1516l-123 66z" />
    <glyph glyph-name="threequarters" unicode="&#xbe;" horiz-adv-x="1708" 
d="M371 715q63 0 110 35.5t47 87.5q0 86 -57.5 112.5t-151.5 26.5h-34v135h37q87 0 135.5 23t48.5 83t-37 90.5t-96 30.5q-107 0 -142 -92l-170 41q31 98 115 142.5t167 44.5q151 0 237 -60.5t86 -169.5q0 -72 -43 -126t-117 -70v-5q90 -10 136 -70.5t46 -130.5
q0 -127 -91 -195t-217 -68q-275 0 -333 202l170 41q34 -108 154 -108zM1419 193h-401v118l375 572h161v-555h127v-135h-127v-193h-135v193zM1419 711h-4l-237 -383h241v383zM1292 1516l123 -66l-899 -1516l-123 66z" />
    <glyph glyph-name="questiondown" unicode="&#xbf;" horiz-adv-x="1024" 
d="M594 590v-125q0 -100 -24.5 -144.5t-53 -72t-64.5 -62.5t-113 -108.5t-77 -164.5q0 -106 61.5 -169t158.5 -63t160 63t75 166l209 -21q-27 -178 -149 -279.5t-299 -101.5t-294.5 101t-117.5 278q0 139 86 246l122 127l21 19q68 63 85 100t17 121v90h197zM362 872.5
q0 55.5 40 95.5t95.5 40t95.5 -40t40 -95.5t-40 -95.5t-95.5 -40t-95.5 40t-40 95.5z" />
    <glyph glyph-name="Agrave" unicode="&#xc0;" horiz-adv-x="1441" 
d="M641 1450h178l621 -1450h-230l-145 358h-690l-144 -358h-229zM993 530l-270 666h-4l-275 -666h549zM856 1532h-170l-305 295h262z" />
    <glyph glyph-name="Aacute" unicode="&#xc1;" horiz-adv-x="1441" 
d="M641 1450h178l621 -1450h-230l-145 358h-690l-144 -358h-229zM993 530l-270 666h-4l-275 -666h549zM799 1827h262l-305 -295h-170z" />
    <glyph glyph-name="Acircumflex" unicode="&#xc2;" horiz-adv-x="1441" 
d="M641 1450h178l621 -1450h-230l-145 358h-690l-144 -358h-229zM993 530l-270 666h-4l-275 -666h549zM872 1532l-151 197l-152 -197h-186l229 295h217l230 -295h-187z" />
    <glyph glyph-name="Atilde" unicode="&#xc3;" horiz-adv-x="1441" 
d="M641 1450h178l621 -1450h-230l-145 358h-690l-144 -358h-229zM993 530l-270 666h-4l-275 -666h549zM503 1751q36 18 98 18t209 -70q24 -11 60 -11t62 26q25 26 35 64h98q-13 -84 -46 -130q-59 -83 -138 -83q-78 0 -174 43q-98 38 -136 38q-39 1 -63 -27t-33 -63h-98
q22 143 126 195z" />
    <glyph glyph-name="Adieresis" unicode="&#xc4;" horiz-adv-x="1441" 
d="M641 1450h178l621 -1450h-230l-145 358h-690l-144 -358h-229zM993 530l-270 666h-4l-275 -666h549zM512 1839q47 0 87 -33t40 -86t-36 -90t-91 -37t-91 37t-36 90t40 86t87 33zM930 1839q47 0 87 -33t40 -86t-36 -90t-91 -37t-91 37t-36 90t40 86t87 33z" />
    <glyph glyph-name="Aring" unicode="&#xc5;" horiz-adv-x="1441" 
d="M641 1450h178l621 -1450h-230l-145 358h-690l-144 -358h-229zM993 530l-270 666h-4l-275 -666h549zM574 1833q62 59 149 59t146 -58t60 -143t-60 -143q-61 -59 -147 -59t-148 59q-62 58 -62 142t62 143zM844 1691q0 50 -37 83q-37 32 -86 32t-86 -32t-37 -83
q0 -50 38 -83t85 -33t85 33t38 83z" />
    <glyph glyph-name="AE" unicode="&#xc6;" horiz-adv-x="1972" 
d="M1855 1450v-184h-604v-432h568v-185h-568v-465h629v-184h-825v352h-623l-207 -352h-241l938 1450h933zM1055 537v729h-39l-477 -729h516z" />
    <glyph glyph-name="Ccedilla" unicode="&#xc7;" horiz-adv-x="1441" 
d="M842 -37q-14 0 -29 1l-63 -89h59q81 0 129 -35q59 -39 59 -103q0 -111 -84 -161q-69 -43 -148 -43q-141 0 -239 47l39 82q76 -31 157 -31t116 43q12 16 12 49t-20 51q-48 45 -173 11l-43 37l106 150q-101 15 -214 69t-210 160q-200 219 -200 527q0 153 56 295
q113 291 393 407q139 57 295 57t294 -55t226 -170l-164 -125q-62 80 -156 123t-206 43q-112 -1 -210 -47q-200 -94 -280 -313q-39 -109 -39 -227q0 -239 147 -403t390 -165q244 -1 383 194l166 -125q-101 -145 -329 -222q-95 -32 -220 -32z" />
    <glyph glyph-name="Egrave" unicode="&#xc8;" horiz-adv-x="1251" 
d="M186 1450h936v-184h-739v-432h688v-185h-688v-465h776v-184h-973v1450zM762 1532h-170l-305 295h262z" />
    <glyph glyph-name="Eacute" unicode="&#xc9;" horiz-adv-x="1251" 
d="M186 1450h936v-184h-739v-432h688v-185h-688v-465h776v-184h-973v1450zM705 1827h262l-305 -295h-170z" />
    <glyph glyph-name="Ecircumflex" unicode="&#xca;" horiz-adv-x="1251" 
d="M186 1450h936v-184h-739v-432h688v-185h-688v-465h776v-184h-973v1450zM778 1532l-151 197l-152 -197h-186l229 295h217l230 -295h-187z" />
    <glyph glyph-name="Edieresis" unicode="&#xcb;" horiz-adv-x="1251" 
d="M186 1450h936v-184h-739v-432h688v-185h-688v-465h776v-184h-973v1450zM418 1839q47 0 87 -33t40 -86t-36 -90t-91 -37t-91 37t-36 90t40 86t87 33zM836 1839q47 0 87 -33t40 -86t-36 -90t-91 -37t-92 37q-36 37 -36 90t41 86q40 33 87 33z" />
    <glyph glyph-name="Igrave" unicode="&#xcc;" horiz-adv-x="569" 
d="M186 1450h197v-1450h-197v1450zM420 1532h-170l-305 295h262z" />
    <glyph glyph-name="Iacute" unicode="&#xcd;" horiz-adv-x="569" 
d="M186 1450h197v-1450h-197v1450zM362 1827h263l-306 -295h-169z" />
    <glyph glyph-name="Icircumflex" unicode="&#xce;" horiz-adv-x="569" 
d="M186 1450h197v-1450h-197v1450zM436 1532l-151 197l-152 -197h-186l229 295h217l230 -295h-187z" />
    <glyph glyph-name="Idieresis" unicode="&#xcf;" horiz-adv-x="569" 
d="M186 1450h197v-1450h-197v1450zM76 1839q47 0 87 -33t40 -86t-36 -90t-91 -37t-91 37t-36 90t40 86t87 33zM494 1839q47 0 87 -33t40 -86t-36 -90t-91 -37t-92 37q-36 37 -36 90t41 86q40 33 87 33z" />
    <glyph glyph-name="Eth" unicode="&#xd0;" horiz-adv-x="1517" 
d="M154 688h-148v135h148v627h505q282 0 453.5 -117t240 -283t68.5 -315t-51 -279t-151.5 -231.5t-249 -163t-342.5 -61.5h-473v688zM350 184h248q263 0 438.5 141t175.5 400q0 196 -85 310t-195.5 172.5t-286.5 58.5h-295v-443h479v-135h-479v-504z" />
    <glyph glyph-name="Ntilde" unicode="&#xd1;" horiz-adv-x="1630" 
d="M186 1450h258l799 -1192h4v1192h197v-1450h-250l-807 1192h-4v-1192h-197v1450zM494 1634q55 135 201 135q62 0 209 -70q24 -11 61 -11t61 26t35 64h98q-22 -146 -113 -195q-34 -18 -90 -18t-155 43q-98 38 -136 38q-38 1 -62 -27t-34 -63h-98q6 39 23 78z" />
    <glyph glyph-name="Ograve" unicode="&#xd2;" horiz-adv-x="1703" 
d="M852 -37q-166 1 -305 59q-280 118 -394 402q-56 139 -57 301q0 162 57 301q115 287 394 402q139 58 305 58t305 -58q280 -118 394 -402q57 -139 57 -301t-56 -301q-117 -287 -395 -402q-139 -59 -305 -59zM1399 724q0 244 -153 411q-153 166 -392 167q-240 1 -395 -165
q-154 -166 -154 -411q0 -244 153 -412q153 -167 393 -167q239 0 394 166q154 167 154 411zM987 1532h-170l-305 295h262z" />
    <glyph glyph-name="Oacute" unicode="&#xd3;" horiz-adv-x="1703" 
d="M852 -37q-166 1 -305 59q-280 118 -394 402q-56 139 -57 301q0 162 57 301q115 287 394 402q139 58 305 58t305 -58q280 -118 394 -402q57 -139 57 -301t-56 -301q-117 -287 -395 -402q-139 -59 -305 -59zM1399 724q0 244 -153 411q-153 166 -392 167q-240 1 -395 -165
q-154 -166 -154 -411q0 -244 153 -412q153 -167 393 -167q239 0 394 166q154 167 154 411zM930 1827h262l-305 -295h-170z" />
    <glyph glyph-name="Ocircumflex" unicode="&#xd4;" horiz-adv-x="1703" 
d="M852 -37q-166 1 -305 59q-280 118 -394 402q-56 139 -57 301q0 162 57 301q115 287 394 402q139 58 305 58t305 -58q280 -118 394 -402q57 -139 57 -301t-56 -301q-117 -287 -395 -402q-139 -59 -305 -59zM1399 724q0 244 -153 411q-153 166 -392 167q-240 1 -395 -165
q-154 -166 -154 -411q0 -244 153 -412q153 -167 393 -167q239 0 394 166q154 167 154 411zM1004 1532l-152 197l-152 -197h-186l229 295h218l229 -295h-186z" />
    <glyph glyph-name="Otilde" unicode="&#xd5;" horiz-adv-x="1703" 
d="M852 -37q-166 1 -305 59q-280 118 -394 402q-56 139 -57 301q0 162 57 301q115 287 394 402q139 58 305 58t305 -58q280 -118 394 -402q57 -139 57 -301t-56 -301q-117 -287 -395 -402q-139 -59 -305 -59zM1399 724q0 244 -153 411q-153 166 -392 167q-240 1 -395 -165
q-154 -166 -154 -411q0 -244 153 -412q153 -167 393 -167q239 0 394 166q154 167 154 411zM634 1751q36 18 98 18t209 -70q25 -11 61 -11t61 26t35 64h98q-23 -147 -114 -195q-34 -18 -90 -18t-154 43q-98 38 -136 38q-38 1 -62 -27t-34 -63h-98q22 143 126 195z" />
    <glyph glyph-name="Odieresis" unicode="&#xd6;" horiz-adv-x="1703" 
d="M852 -37q-166 1 -305 59q-280 118 -394 402q-56 139 -57 301q0 162 57 301q115 287 394 402q139 58 305 58t305 -58q280 -118 394 -402q57 -139 57 -301t-56 -301q-117 -287 -395 -402q-139 -59 -305 -59zM1399 724q0 244 -153 411q-153 166 -392 167q-240 1 -395 -165
q-154 -166 -154 -411q0 -244 153 -412q153 -167 393 -167q239 0 394 166q154 167 154 411zM643 1839q47 0 87 -33t40 -86t-36 -90t-91 -37t-91 37t-36 90t40 86t87 33zM1061 1839q47 0 87 -33t40 -86t-36 -90t-91 -37t-91 37t-36 90t40 86t87 33z" />
    <glyph glyph-name="multiply" unicode="&#xd7;" horiz-adv-x="1363" 
d="M569 621l-434 434l113 112l434 -434l436 434l111 -112l-434 -434l434 -435l-115 -112l-432 434l-432 -434l-111 114z" />
    <glyph glyph-name="Oslash" unicode="&#xd8;" horiz-adv-x="1703" 
d="M852 147q240 0 393.5 166.5t153.5 398.5t-127 394l-768 -838q149 -121 348 -121zM852 1303q-240 0 -393.5 -166.5t-153.5 -394.5q0 -229 119 -388l766 834q-148 115 -338 115zM96 725q0 162 56.5 301t156 241.5t238.5 161t305 58.5q269 0 471 -156l170 185l86 -78
l-170 -185q199 -212 199 -528q0 -162 -56.5 -301t-156 -241.5t-238.5 -161t-305 -58.5q-280 0 -479 162l-172 -186l-88 77l174 191q-191 212 -191 518z" />
    <glyph glyph-name="Ugrave" unicode="&#xd9;" horiz-adv-x="1441" 
d="M356 1450v-889q0 -161 80 -274q99 -140 286 -140t284 140q79 112 79 274v889h197v-920q0 -247 -160 -407t-401 -160t-401 160t-160 407v920h196zM856 1532h-170l-305 295h262z" />
    <glyph glyph-name="Uacute" unicode="&#xda;" horiz-adv-x="1441" 
d="M356 1450v-889q0 -161 80 -274q99 -140 286 -140t284 140q79 112 79 274v889h197v-920q0 -247 -160 -407t-401 -160t-401 160t-160 407v920h196zM799 1827h262l-305 -295h-170z" />
    <glyph glyph-name="Ucircumflex" unicode="&#xdb;" horiz-adv-x="1441" 
d="M356 1450v-889q0 -161 80 -274q99 -140 286 -140t284 140q79 112 79 274v889h197v-920q0 -247 -160 -407t-401 -160t-401 160t-160 407v920h196zM872 1532l-151 197l-152 -197h-186l229 295h217l230 -295h-187z" />
    <glyph glyph-name="Udieresis" unicode="&#xdc;" horiz-adv-x="1441" 
d="M356 1450v-889q0 -161 80 -274q99 -140 286 -140t284 140q79 112 79 274v889h197v-920q0 -247 -160 -407t-401 -160t-401 160t-160 407v920h196zM512 1839q47 0 87 -33t40 -86t-36 -90t-91 -37t-91 37t-36 90t40 86t87 33zM930 1839q47 0 87 -33t40 -86t-36 -90t-91 -37
t-91 37t-36 90t40 86t87 33z" />
    <glyph glyph-name="Yacute" unicode="&#xdd;" horiz-adv-x="1253" 
d="M725 0h-197v618l-548 832h251l396 -637l407 637h240l-549 -832v-618zM705 1827h262l-305 -295h-170z" />
    <glyph glyph-name="Thorn" unicode="&#xde;" horiz-adv-x="1214" 
d="M186 1450h197v-297h313q252 0 358.5 -119t106.5 -337t-162.5 -286.5t-302.5 -68.5h-313v-342h-197v1450zM383 514h258q219 0 265 80t46 184.5t-86.5 153.5t-224.5 49h-258v-467z" />
    <glyph glyph-name="germandbls" unicode="&#xdf;" horiz-adv-x="1251" 
d="M139 1042q0 247 97.5 389t363.5 142q179 0 297.5 -97.5t118.5 -273.5q0 -127 -61.5 -207t-166.5 -110v-4q229 -38 289 -181.5t60 -251.5q0 -215 -139 -344t-357 -129q-76 0 -145 19v166q51 -12 108 -13q152 0 244 83t92 239t-100.5 235.5t-255.5 79.5h-29v172h33
q104 0 167.5 59.5t63.5 169.5t-67.5 163t-153.5 53q-153 0 -213.5 -88t-60.5 -248v-1065h-185v1042z" />
    <glyph glyph-name="agrave" unicode="&#xe0;" horiz-adv-x="1062" 
d="M768 147q-112 -172 -318 -172q-251 0 -331 165q-27 54 -27 137t42 147q118 178 493 178h135v41q0 83 -59 143t-162 61q-104 1 -176 -35q-38 -17 -111 -75l-111 115q79 72 181 108t206 35t182 -27q150 -51 198 -174q24 -58 24 -122v-496q0 -98 8 -176h-164q-6 74 -6 147
h-4zM276 281q0 -158 209 -158q141 0 209 85t68 198v61h-98q-167 1 -241 -27q-75 -28 -111 -65t-36 -94zM668 1155h-170l-305 295h262z" />
    <glyph glyph-name="aacute" unicode="&#xe1;" horiz-adv-x="1062" 
d="M768 147q-112 -172 -318 -172q-251 0 -331 165q-27 54 -27 137t42 147q118 178 493 178h135v41q0 83 -59 143t-162 61q-104 1 -176 -35q-38 -17 -111 -75l-111 115q79 72 181 108t206 35t182 -27q150 -51 198 -174q24 -58 24 -122v-496q0 -98 8 -176h-164q-6 74 -6 147
h-4zM276 281q0 -158 209 -158q141 0 209 85t68 198v61h-98q-167 1 -241 -27q-75 -28 -111 -65t-36 -94zM610 1450h262l-305 -295h-170z" />
    <glyph glyph-name="acircumflex" unicode="&#xe2;" horiz-adv-x="1062" 
d="M768 147q-112 -172 -318 -172q-251 0 -331 165q-27 54 -27 137t42 147q118 178 493 178h135v41q0 83 -59 143t-162 61q-104 1 -176 -35q-38 -17 -111 -75l-111 115q79 72 181 108t206 35t182 -27q150 -51 198 -174q24 -58 24 -122v-496q0 -98 8 -176h-164q-6 74 -6 147
h-4zM276 281q0 -158 209 -158q141 0 209 85t68 198v61h-98q-167 1 -241 -27q-75 -28 -111 -65t-36 -94zM684 1155l-152 197l-151 -197h-186l229 295h217l229 -295h-186z" />
    <glyph glyph-name="atilde" unicode="&#xe3;" horiz-adv-x="1062" 
d="M768 147q-112 -172 -318 -172q-251 0 -331 165q-27 54 -27 137t42 147q118 178 493 178h135v41q0 83 -59 143t-162 61q-104 1 -176 -35q-38 -17 -111 -75l-111 115q79 72 181 108t206 35t182 -27q150 -51 198 -174q24 -58 24 -122v-496q0 -98 8 -176h-164q-6 74 -6 147
h-4zM276 281q0 -158 209 -158q141 0 209 85t68 198v61h-98q-167 1 -241 -27q-75 -28 -111 -65t-36 -94zM682 1311q36 1 62 27q24 26 34 63h99q-13 -86 -47 -131q-61 -82 -137 -82t-175 43q-98 38 -136 38q-38 1 -62 -27t-33 -62h-99q6 39 23 77q55 133 201 135q62 0 210 -70
q24 -12 60 -11z" />
    <glyph glyph-name="adieresis" unicode="&#xe4;" horiz-adv-x="1062" 
d="M768 147q-112 -172 -318 -172q-251 0 -331 165q-27 54 -27 137t42 147q118 178 493 178h135v41q0 83 -59 143t-162 61q-104 1 -176 -35q-38 -17 -111 -75l-111 115q79 72 181 108t206 35t182 -27q150 -51 198 -174q24 -58 24 -122v-496q0 -98 8 -176h-164q-6 74 -6 147
h-4zM276 281q0 -158 209 -158q141 0 209 85t68 198v61h-98q-167 1 -241 -27q-75 -28 -111 -65t-36 -94zM324 1462q47 0 87 -32t40 -86q0 -52 -36 -90t-91 -38t-92 37q-36 37 -36 91t41 86q40 32 87 32zM741 1462q47 0 87 -32t40 -86q0 -53 -35 -91q-35 -37 -91 -37t-92 38
q-36 36 -36 90t40 86t87 32z" />
    <glyph glyph-name="aring" unicode="&#xe5;" horiz-adv-x="1062" 
d="M768 147q-112 -172 -318 -172q-251 0 -331 165q-27 54 -27 137t42 147q118 178 493 178h135v41q0 83 -59 143t-162 61q-104 1 -176 -35q-38 -17 -111 -75l-111 115q79 72 181 108t206 35t182 -27q150 -51 198 -174q24 -58 24 -122v-496q0 -98 8 -176h-164q-6 74 -6 147
h-4zM276 281q0 -158 209 -158q141 0 209 85t68 198v61h-98q-167 1 -241 -27q-75 -28 -111 -65t-36 -94zM386 1477q62 59 148 59t146 -58q61 -58 61 -145q0 -86 -61 -143q-60 -57 -146 -57t-148 59q-62 58 -62 142t62 143zM655 1334q0 50 -37 83t-86 33t-86 -33
q-36 -33 -36 -83t38 -83t84 -33q47 0 85 34q38 32 38 82z" />
    <glyph glyph-name="ae" unicode="&#xe6;" horiz-adv-x="1744" 
d="M455 -37q-182 0 -278.5 92t-96.5 221q0 159 116 224t287 65h287v31q0 104 -61 178t-165 74t-165.5 -28.5t-126.5 -82.5l-115 117q78 70 180.5 105.5t204.5 35.5t197.5 -34.5t152.5 -120.5q66 71 142.5 113t206.5 42t218.5 -53t157 -158.5t68.5 -279.5v-86h-723
q0 -125 81 -210t212 -85q88 0 151.5 44t100.5 109l149 -112q-86 -98 -179 -149.5t-226 -51.5q-261 0 -379 199q-147 -199 -397 -199zM479 418q-203 0 -203 -106.5t60 -153.5t130 -47q132 0 218 76.5t86 201.5v29h-291zM1212 836q-124 0 -197 -77t-73 -194h526
q-7 190 -97.5 230.5t-158.5 40.5z" />
    <glyph glyph-name="ccedilla" unicode="&#xe7;" horiz-adv-x="987" 
d="M834 713q-106 110 -246 109t-220 -101q-79 -100 -79 -241t87 -237t225 -96t237 109l131 -131q-130 -144 -354 -149l-72 -101h59q81 0 129 -35q58 -39 59 -103q2 -109 -83 -161q-69 -43 -148 -43q-142 0 -240 47l39 82q76 -31 157 -31t116 43q12 16 12 49q0 64 -68 75
q-49 8 -124 -13l-43 37l111 159q-173 24 -286 135q-141 139 -141 364t140 370q141 143 369 143q229 0 372 -153z" />
    <glyph glyph-name="egrave" unicode="&#xe8;" 
d="M582 -25q-228 0 -364 145t-136 362q0 218 142 366q142 147 369 147t355 -162q109 -140 109 -350v-65h-778q0 -123 96 -202t238 -80t259 145l140 -107q-154 -199 -430 -199zM360 756q-83 -87 -81 -191h581q-4 131 -75 207t-202 76t-223 -92zM705 1155h-170l-306 295h263z
" />
    <glyph glyph-name="eacute" unicode="&#xe9;" 
d="M582 -25q-228 0 -364 145t-136 362q0 218 142 366q142 147 369 147t355 -162q109 -140 109 -350v-65h-778q0 -123 96 -202t238 -80t259 145l140 -107q-154 -199 -430 -199zM360 756q-83 -87 -81 -191h581q-4 131 -75 207t-202 76t-223 -92zM647 1450h262l-305 -295h-170z
" />
    <glyph glyph-name="ecircumflex" unicode="&#xea;" 
d="M582 -25q-228 0 -364 145t-136 362q0 218 142 366q142 147 369 147t355 -162q109 -140 109 -350v-65h-778q0 -123 96 -202t238 -80t259 145l140 -107q-154 -199 -430 -199zM360 756q-83 -87 -81 -191h581q-4 131 -75 207t-202 76t-223 -92zM721 1155l-152 197l-151 -197
h-187l230 295h217l229 -295h-186z" />
    <glyph glyph-name="edieresis" unicode="&#xeb;" 
d="M582 -25q-228 0 -364 145t-136 362q0 218 142 366q142 147 369 147t355 -162q109 -140 109 -350v-65h-778q0 -123 96 -202t238 -80t259 145l140 -107q-154 -199 -430 -199zM360 756q-83 -87 -81 -191h581q-4 131 -75 207t-202 76t-223 -92zM360 1462q47 0 87 -32t40 -86
q0 -53 -35 -91q-36 -37 -92 -37t-91 38q-36 36 -36 90t40 86t87 32zM778 1462q47 0 87 -32t40 -86q0 -52 -36 -90t-91 -38t-91 38q-36 36 -36 90t40 86t87 32z" />
    <glyph glyph-name="igrave" unicode="&#xec;" horiz-adv-x="491" 
d="M154 971h184v-971h-184v971zM381 1155h-170l-305 295h262z" />
    <glyph glyph-name="iacute" unicode="&#xed;" horiz-adv-x="491" 
d="M154 971h184v-971h-184v971zM324 1450h262l-305 -295h-170z" />
    <glyph glyph-name="icircumflex" unicode="&#xee;" horiz-adv-x="491" 
d="M154 971h184v-971h-184v971zM397 1155l-151 197l-152 -197h-186l229 295h217l230 -295h-187z" />
    <glyph glyph-name="idieresis" unicode="&#xef;" horiz-adv-x="491" 
d="M154 971h184v-971h-184v971zM37 1462q47 0 87 -32t40 -86q0 -52 -36 -90t-91 -38t-91 38q-36 36 -36 90t40 86t87 32zM455 1462q47 0 87 -32t40 -86q0 -52 -36 -90t-91 -38t-91 38q-36 36 -36 90t40 86t87 32z" />
    <glyph glyph-name="eth" unicode="&#xf0;" horiz-adv-x="1216" 
d="M1124 551q0 -263 -137 -419.5t-366 -156.5t-379 148.5t-150 360.5t149.5 361.5t366.5 149.5q168 0 256 -102l4 4q-99 178 -295 369l-219 -107l-96 94l217 109l-174 145l162 95l182 -160l221 106l107 -90l-230 -112q381 -400 381 -795zM289 485.5q0 -73.5 22.5 -136
t63.5 -106.5t100.5 -70t133 -26t133 26t100.5 70t63.5 106.5t22.5 136t-22.5 136t-63.5 106.5t-100.5 69.5t-133 25.5t-133 -25.5t-100.5 -69.5t-63.5 -106.5t-22.5 -136z" />
    <glyph glyph-name="ntilde" unicode="&#xf1;" 
d="M139 971h185v-150h4q35 78 121 126t177 48q261 0 345 -203q29 -71 28 -167v-625h-184v573q0 129 -62 190q-62 60 -159 60q-192 0 -250 -178q-20 -61 -20 -145v-500h-185v971zM719 1311q37 1 61 27t35 63h98q-22 -146 -113 -195q-34 -18 -90 -18t-155 43q-98 38 -136 38
q-38 1 -62 -27t-33 -62h-99q6 39 23 77q55 133 203 135q63 0 207 -70q24 -12 61 -11z" />
    <glyph glyph-name="ograve" unicode="&#xf2;" horiz-adv-x="1216" 
d="M607 147q143 0 232 94t89 243t-88 245t-232 95t-232 -95q-87 -93 -87 -243t88 -245q87 -94 230 -94zM92 485q0 107 40 199q83 192 274 271q94 40 202 40q215 0 366 -149q150 -149 150 -361t-150 -361t-366 -149q-215 0 -365 148q-151 149 -151 362zM743 1155h-170
l-305 295h262z" />
    <glyph glyph-name="oacute" unicode="&#xf3;" horiz-adv-x="1216" 
d="M607 147q143 0 232 94t89 243t-88 245t-232 95t-232 -95q-87 -93 -87 -243t88 -245q87 -94 230 -94zM92 485q0 107 40 199q83 192 274 271q94 40 202 40q215 0 366 -149q150 -149 150 -361t-150 -361t-366 -149q-215 0 -365 148q-151 149 -151 362zM686 1450h262
l-305 -295h-170z" />
    <glyph glyph-name="ocircumflex" unicode="&#xf4;" horiz-adv-x="1216" 
d="M607 147q143 0 232 94t89 243t-88 245t-232 95t-232 -95q-87 -93 -87 -243t88 -245q87 -94 230 -94zM92 485q0 107 40 199q83 192 274 271q94 40 202 40q215 0 366 -149q150 -149 150 -361t-150 -361t-366 -149q-215 0 -365 148q-151 149 -151 362zM760 1155l-152 197
l-151 -197h-187l230 295h217l229 -295h-186z" />
    <glyph glyph-name="otilde" unicode="&#xf5;" horiz-adv-x="1216" 
d="M607 147q143 0 232 94t89 243t-88 245t-232 95t-232 -95q-87 -93 -87 -243t88 -245q87 -94 230 -94zM92 485q0 107 40 199q83 192 274 271q94 40 202 40q215 0 366 -149q150 -149 150 -361t-150 -361t-366 -149q-215 0 -365 148q-151 149 -151 362zM758 1311q38 1 62 27
t34 63h98q-22 -146 -113 -195q-34 -18 -90 -18t-155 43q-98 38 -136 38q-38 1 -62 -27t-34 -62h-98q6 39 23 77q55 133 203 135q64 0 208 -70q24 -12 60 -11z" />
    <glyph glyph-name="odieresis" unicode="&#xf6;" horiz-adv-x="1216" 
d="M607 147q143 0 232 94t89 243t-88 245t-232 95t-232 -95q-87 -93 -87 -243t88 -245q87 -94 230 -94zM92 485q0 107 40 199q83 192 274 271q94 40 202 40q215 0 366 -149q150 -149 150 -361t-150 -361t-366 -149q-215 0 -365 148q-151 149 -151 362zM399 1462q47 0 87 -32
t40 -86q0 -52 -36 -90t-91 -38t-91 38q-36 36 -36 90t40 86t87 32zM817 1462q47 0 87 -32t40 -86q0 -52 -36 -90t-91 -38t-91 38q-36 36 -36 90t40 86t87 32z" />
    <glyph glyph-name="divide" unicode="&#xf7;" horiz-adv-x="1363" 
d="M1229 698v-159h-1094v159h1094zM547 962.5q0 55.5 40 95.5t95 40t95 -40t40 -95.5t-40 -95.5t-95 -40t-95 40t-40 95.5zM547 274.5q0 55.5 40 95.5t95 40t95 -40t40 -95.5t-40 -95.5t-95 -40t-95 40t-40 95.5z" />
    <glyph glyph-name="oslash" unicode="&#xf8;" horiz-adv-x="1216" 
d="M289 497q0 -139 61 -221l467 476q-83 71 -218 71t-222.5 -93.5t-87.5 -232.5zM221 147q-129 144 -129 347q0 202 149.5 351.5t353.5 149.5t345 -118l154 153l73 -74l-153 -155q110 -137 110 -333t-150 -344.5t-366 -148.5q-165 0 -307 101l-141 -142l-76 74zM928 502
q0 90 -45 166l-457 -465q74 -55 165 -55t150.5 25.5t100.5 69.5t63.5 106.5t22.5 152.5z" />
    <glyph glyph-name="ugrave" unicode="&#xf9;" 
d="M999 0h-184v150h-4q-35 -78 -121 -126t-178 -48q-260 -1 -344 203q-29 71 -29 167v625h185v-574q0 -128 62 -188t139 -61q77 0 126 18q103 39 144 160q20 61 20 145v500h184v-971zM705 1155h-170l-306 295h263z" />
    <glyph glyph-name="uacute" unicode="&#xfa;" 
d="M999 0h-184v150h-4q-35 -78 -121 -126t-178 -48q-260 -1 -344 203q-29 71 -29 167v625h185v-574q0 -128 62 -188t139 -61q77 0 126 18q103 39 144 160q20 61 20 145v500h184v-971zM647 1450h262l-305 -295h-170z" />
    <glyph glyph-name="ucircumflex" unicode="&#xfb;" 
d="M999 0h-184v150h-4q-35 -78 -121 -126t-178 -48q-260 -1 -344 203q-29 71 -29 167v625h185v-574q0 -128 62 -188t139 -61q77 0 126 18q103 39 144 160q20 61 20 145v500h184v-971zM721 1155l-152 197l-151 -197h-187l230 295h217l229 -295h-186z" />
    <glyph glyph-name="udieresis" unicode="&#xfc;" 
d="M999 0h-184v150h-4q-35 -78 -121 -126t-178 -48q-260 -1 -344 203q-29 71 -29 167v625h185v-574q0 -128 62 -188t139 -61q77 0 126 18q103 39 144 160q20 61 20 145v500h184v-971zM360 1462q47 0 87 -32t40 -86q0 -53 -35 -91q-36 -37 -92 -37t-91 38q-36 36 -36 90
t40 86t87 32zM778 1462q47 0 87 -32t40 -86q0 -52 -36 -90t-91 -38t-91 38q-36 36 -36 90t40 86t87 32z" />
    <glyph glyph-name="yacute" unicode="&#xfd;" horiz-adv-x="1024" 
d="M23 971h213l288 -758h4l275 758h198l-460 -1180q-58 -147 -105 -194q-47 -48 -116 -74t-194 -9q-42 5 -81 21l23 168q100 -42 169 -16q70 26 101 88q14 29 29 65l59 154zM590 1450h262l-305 -295h-170z" />
    <glyph glyph-name="thorn" unicode="&#xfe;" horiz-adv-x="1251" 
d="M139 1548h185v-717h4q49 76 141 120t201 44t200 -38.5t155.5 -107.5t99 -162t34.5 -256t-135 -309.5t-358 -146.5q-98 0 -191.5 43t-146.5 121h-4v-606h-185v2015zM643 147q74 0 133.5 26t100.5 70t63.5 106.5t22.5 136t-22.5 136t-63.5 106.5t-100.5 69.5t-133.5 25.5
t-133 -25.5t-100 -69.5t-63.5 -106.5t-22.5 -136t22.5 -136t63.5 -106.5t100 -70t133 -26z" />
    <glyph glyph-name="ydieresis" unicode="&#xff;" horiz-adv-x="1024" 
d="M23 971h213l288 -758h4l275 758h198l-460 -1180q-58 -147 -105 -194q-47 -48 -116 -74t-194 -9q-42 5 -81 21l23 168q100 -42 169 -16q70 26 101 88q14 29 29 65l59 154zM303 1462q47 0 87 -32t40 -86q0 -52 -36 -90t-91 -38t-91 38q-36 36 -36 90t40 86t87 32zM721 1462
q47 0 87 -32t40 -86q0 -52 -36 -90t-91 -38t-91 38q-36 36 -36 90t40 86t87 32z" />
    <glyph glyph-name="dotlessi" unicode="&#x131;" horiz-adv-x="491" 
d="M154 971h184v-971h-184v971z" />
    <glyph glyph-name="Lslash" unicode="&#x141;" horiz-adv-x="1062" 
d="M186 1450h197v-672l442 385v-182l-442 -383v-414h666v-184h-863v428l-147 -129v182l147 127v842z" />
    <glyph glyph-name="lslash" unicode="&#x142;" horiz-adv-x="491" 
d="M154 1548h184v-569l160 158v-185l-160 -157v-795h-184v610l-160 -159v184l160 160v753z" />
    <glyph glyph-name="OE" unicode="&#x152;" horiz-adv-x="2009" 
d="M1890 0h-934q-390 0 -613.5 199.5t-223.5 528.5t224 525.5t613 196.5h910v-184h-602v-432h565v-185h-565v-465h626v-184zM1067 1266h-125q-290 0 -452 -156.5t-162 -389.5q0 -232 159.5 -384t454.5 -152h125v1082z" />
    <glyph glyph-name="oe" unicode="&#x153;" horiz-adv-x="1896" 
d="M1370 -25q-119 0 -227.5 44t-169.5 145q-126 -189 -400 -189q-229 0 -361 142.5t-132 365.5t141 367.5t377 144.5t379 -186q141 186 383 186q207 0 332 -136t125 -351v-90h-736q0 -119 73.5 -201t228.5 -82q154 0 243 141l152 -100q-139 -201 -408 -201zM1328 848
q-93 0 -170 -90t-77 -193h539q-7 188 -103 235.5t-189 47.5zM820 734q-77 102 -229 102t-233.5 -98.5t-81.5 -249.5t79 -252t218 -101q175 0 249.5 100t74.5 248.5t-77 250.5z" />
    <glyph glyph-name="Scaron" unicode="&#x160;" 
d="M518 147q128 0 218 67t89 175q0 84 -53 128t-132 74q-79 29 -172 57t-172 77t-132 132t-53 224q-1 63 27 135q58 153 240 231q93 40 218 40q126 0 234 -33t190 -133l-160 -145q-36 57 -104 92t-152 35q-148 0 -225 -77q-57 -59 -59 -148t52 -138q86 -79 301 -135
q361 -95 361 -380q0 -218 -144 -340t-360 -122q-139 0 -264 49t-198 152l161 139q53 -80 137 -118t152 -38zM231 1827h179l159 -197l152 197h186l-229 -295h-217z" />
    <glyph glyph-name="scaron" unicode="&#x161;" horiz-adv-x="909" 
d="M197 262q115 -115 215 -115q100 1 141 23q74 41 75 91q2 82 -86 119q-36 15 -118 33t-138 38q-188 66 -188 245q0 141 109 220t260 79q98 0 188 -37t144 -122l-144 -109q-79 98 -198 96q-66 1 -114 -27t-48 -76q0 -110 187 -144q187 -35 265 -104q79 -69 78 -191
q0 -153 -125 -236q-101 -68 -245 -69t-235 36t-163 135zM117 1450h178l160 -197l151 197h187l-230 -295h-217z" />
    <glyph glyph-name="Ydieresis" unicode="&#x178;" horiz-adv-x="1253" 
d="M725 0h-197v618l-548 832h251l396 -637l407 637h240l-549 -832v-618zM418 1839q47 0 87 -33t40 -86t-36 -90t-91 -37t-91 37t-36 90t40 86t87 33zM836 1839q47 0 87 -33t40 -86t-36 -90t-91 -37t-92 37q-36 37 -36 90t41 86q40 33 87 33z" />
    <glyph glyph-name="florin" unicode="&#x192;" 
d="M898 1303q-64 0 -114.5 -45.5t-70.5 -159.5l-39 -228h246v-147h-275l-149 -754q-23 -121 -110 -192.5t-199 -71.5t-212 51l78 146q63 -25 109 -25t74 17.5t45.5 44t25.5 59.5t15 61l129 664h-222v147h250l56 289q29 141 112.5 228.5t217.5 87.5t222 -50l-81 -153
q-44 31 -108 31z" />
    <glyph glyph-name="circumflex" unicode="&#x2c6;" horiz-adv-x="491" 
d="M397 1155l-151 197l-152 -197h-186l229 295h217l230 -295h-187z" />
    <glyph glyph-name="caron" unicode="&#x2c7;" horiz-adv-x="491" 
d="M-92 1450h178l160 -197l151 197h187l-230 -295h-217z" />
    <glyph glyph-name="breve" unicode="&#x2d8;" horiz-adv-x="491" 
d="M248 1290q76 0 136 35t75 113h108q-10 -141 -98 -212t-223 -71t-223.5 70.5t-98.5 212.5h113q14 -78 74.5 -113t136.5 -35z" />
    <glyph glyph-name="dotaccent" unicode="&#x2d9;" horiz-adv-x="491" 
d="M245.5 1217q-55.5 0 -91 36.5t-35.5 90.5t40 86t87 32t87 -32.5t40 -85.5t-36 -90t-91.5 -37z" />
    <glyph glyph-name="ring" unicode="&#x2da;" horiz-adv-x="491" 
d="M99 1476q62 60 148 60t147 -59t61 -142.5t-60.5 -142.5t-147.5 -59t-148.5 60t-61.5 141.5t62 141.5zM369 1334q0 50 -37 83t-86 33t-86 -33t-37 -83t38 -82.5t85 -32.5t85 32.5t38 82.5z" />
    <glyph glyph-name="ogonek" unicode="&#x2db;" horiz-adv-x="491" 
d="M440 -381q-80 -72 -173 -72t-152.5 44t-63.5 130q0 116 79 192.5t112 100.5h110q-153 -153 -153 -256q7 -88 100 -88q47 0 96 39z" />
    <glyph glyph-name="tilde" unicode="&#x2dc;" horiz-adv-x="491" 
d="M391 1311q74 0 101 90h98q-22 -145 -85 -179t-119 -34t-155 43q-31 12 -65.5 25.5t-71.5 13.5t-60.5 -28t-33.5 -62h-98q22 140 92 176.5t116 36.5t88 -15.5t78 -29.5t59 -25.5t56 -11.5z" />
    <glyph glyph-name="hungarumlaut" unicode="&#x2dd;" horiz-adv-x="491" 
d="M111 1450h260l-305 -295h-168zM457 1450h260l-305 -295h-168z" />
    <glyph glyph-name="endash" unicode="&#x2013;" horiz-adv-x="1024" 
d="M1024 418h-1024v160h1024v-160z" />
    <glyph glyph-name="emdash" unicode="&#x2014;" horiz-adv-x="2048" 
d="M2048 418h-2048v160h2048v-160z" />
    <glyph glyph-name="quoteleft" unicode="&#x2018;" horiz-adv-x="569" 
d="M287 1450h168l-142 -504h-198z" />
    <glyph glyph-name="quoteright" unicode="&#x2019;" horiz-adv-x="569" 
d="M283 946h-168l141 504h199z" />
    <glyph glyph-name="quotesinglbase" unicode="&#x201a;" horiz-adv-x="569" 
d="M283 -270h-168l141 503h199z" />
    <glyph glyph-name="quotedblleft" unicode="&#x201c;" horiz-adv-x="1062" 
d="M379 946h-199l172 504h168zM741 946h-198l172 504h168z" />
    <glyph glyph-name="quotedblright" unicode="&#x201d;" horiz-adv-x="1062" 
d="M348 946h-168l142 504h198zM711 946h-168l141 504h199z" />
    <glyph glyph-name="quotedblbase" unicode="&#x201e;" horiz-adv-x="1062" 
d="M348 -270h-168l142 503h198zM711 -270h-168l141 503h199z" />
    <glyph glyph-name="dagger" unicode="&#x2020;" 
d="M477 874h-405v160h405v416h185v-416h405v-160h-405v-1132h-185v1132z" />
    <glyph glyph-name="daggerdbl" unicode="&#x2021;" 
d="M477 135h-393v160h393v627h-393v159h393v369h185v-369h393v-159h-393v-627h393v-160h-393v-393h-185v393z" />
    <glyph glyph-name="bullet" unicode="&#x2022;" horiz-adv-x="1024" 
d="M150 725q0 76 28.5 141.5t77.5 114.5t114.5 77.5t141.5 28.5t141.5 -28.5t114.5 -77.5t77.5 -114.5t28.5 -141.5t-28.5 -141.5t-77.5 -114.5t-114.5 -78t-141.5 -29t-141.5 29t-114.5 78t-77.5 114.5t-28.5 141.5z" />
    <glyph glyph-name="ellipsis" unicode="&#x2026;" horiz-adv-x="2048" 
d="M342 -12q-55 0 -95 40t-40 95t40 95t95 40t95 -40t40 -95t-40 -95t-95 -40zM1024 -12q-55 0 -95 40t-40 95t40 95t95 40t95 -40t40 -95t-40 -95t-95 -40zM1706 -12q-55 0 -95 40t-40 95t40 95t95 40t95 -40t40 -95t-40 -95t-95 -40z" />
    <glyph glyph-name="perthousand" unicode="&#x2030;" horiz-adv-x="2162" 
d="M1038.5 -37q-69.5 0 -130 26.5t-105.5 71.5t-70.5 105.5t-25.5 130.5t25.5 130t70.5 105.5t105.5 71t130 25.5t130 -25.5t105.5 -71t71.5 -105.5t26.5 -130t-26.5 -130.5t-71.5 -105.5t-105.5 -71.5t-130 -26.5zM1038.5 111q77.5 0 132 54t54.5 132t-54.5 131t-132 53
t-131 -53t-53.5 -131t53.5 -132t131 -54zM1456 297q0 70 25.5 130t70.5 105.5t105.5 71t130.5 25.5t130 -25.5t105 -71t72 -105.5t27 -130t-27 -130.5t-72 -105.5t-105 -71.5t-130 -26.5t-130.5 26.5t-105.5 71.5t-70.5 105.5t-25.5 130.5zM1788 111q78 0 132 54t54 132
t-54 131t-132 53t-131 -53t-53 -131t53 -132t131 -54zM317 -63l-127 63l912 1516l123 -62zM41 1142.5q0 69.5 25.5 130t70.5 105.5t105.5 71t130 26t130 -26t105.5 -71t72 -105.5t27 -130t-27 -130t-72 -105.5t-105.5 -71.5t-130 -26.5t-130 26.5t-105.5 71.5t-70.5 105.5
t-25.5 130zM188 1143q0 -78 53.5 -132.5t131.5 -54.5t132 54.5t54 132.5t-54 131t-132 53t-131.5 -53t-53.5 -131z" />
    <glyph glyph-name="guilsinglleft" unicode="&#x2039;" horiz-adv-x="645" 
d="M111 498l297 442l127 -84l-240 -358l242 -359l-127 -84z" />
    <glyph glyph-name="guilsinglright" unicode="&#x203a;" horiz-adv-x="645" 
d="M111 139l239 359l-241 358l127 84l299 -442l-297 -443z" />
    <glyph glyph-name="trademark" unicode="&#x2122;" horiz-adv-x="2048" 
d="M324 1315h-254v135h667v-135h-254v-709h-159v709zM899 1450h244l227 -647h6l228 647h243v-844h-159v705h-5l-245 -705h-129l-246 705h-4v-705h-160v844z" />
    <glyph glyph-name="minus" unicode="&#x2212;" horiz-adv-x="1363" 
d="M1229 700v-159h-1094v159h1094z" />
    <glyph glyph-name="fraction" unicode="&#x2215;" horiz-adv-x="342" 
d="M-217 -66l-123 66l899 1516l123 -66z" />
    <glyph glyph-name="fi" unicode="&#xfb01;" 
d="M799 971h184v-971h-184v971zM758 1317q0 55 40 95t95 40t95 -40t40 -95t-40 -95t-95 -40t-95 40t-40 95zM557 1413q-97 0 -128.5 -53t-31.5 -166v-223h219v-160h-221v-811h-184v811h-209v160h209v217q0 195 74.5 290t257.5 95q82 0 137 -14l-21 -164q-49 18 -102 18z" />
    <glyph glyph-name="fl" unicode="&#xfb02;" 
d="M801 1548h184v-1548h-184v1548zM557 1413q-97 0 -128.5 -53t-31.5 -166v-223h219v-160h-221v-811h-184v811h-209v160h209v217q0 195 74.5 290t257.5 95q82 0 137 -14l-21 -164q-49 18 -102 18z" />
    <glyph glyph-name="nonbreakingspace" horiz-adv-x="569" 
 />
    </font>
</defs>
</svg>
